# xmcd
#
# Track frame offsets: 
#        183
#        10058
#        19113
#        33113
#        53828
#        71545
#        81960
#        91483
#        101298
#        110300
#        121990
#        127093
#        145415
#        152760
#        167815
#        184943
#
# Disc length: 2602 seconds
#
# Revision: 4
# Processed by: cddbd v1.5.2PL0 Copyright (c) Steve Scherf et al.
# Submitted via: ExactAudioCopyFreeDBPlugin 1.0
#
DISCID=ce0a2810
DTITLE=Michala Petri - Art of the Recorder (1985)
DYEAR=1983
DGENRE=Baroque
TTITLE0=Michala Petri - Kenneth Sillito: Academy Of St. Martin In The F
TTITLE0=ields - BABELL: Concerto in C, Op.3#1: I. Allegro
TTITLE1=Michala Petri - Kenneth Sillito: Academy Of St. Martin In The F
TTITLE1=ields - BABELL: Concerto in C, Op.3#1: II. Adagio
TTITLE2=Michala Petri - Kenneth Sillito: Academy Of St. Martin In The F
TTITLE2=ields - BABELL: Concerto in C, Op.3#1: III. Allegro
TTITLE3=Graham Sheen, Michala Petri - Kenneth Sillito: Academy Of St. M
TTITLE3=artin In The Fields - HANDEL: Concerto in Bb, Op.4#6, HWV 294:
TTITLE3=I. Andante - Allegro
TTITLE4=Graham Sheen, Michala Petri - Kenneth Sillito: Academy Of St. M
TTITLE4=artin In The Fields - HANDEL: Concerto in Bb, Op.4#6, HWV 294:
TTITLE4=II. Larghetto
TTITLE5=Graham Sheen, Michala Petri - Kenneth Sillito: Academy Of St. M
TTITLE5=artin In The Fields - HANDEL: Concerto in Bb, Op.4#6, HWV 294:
TTITLE5=III. Allegro moderato
TTITLE6=Michala Petri - Kenneth Sillito: Academy Of St. Martin In The F
TTITLE6=ields - BASTON: Concerto No. 2 in D: I. Allegro
TTITLE7=Michala Petri - Kenneth Sillito: Academy Of St. Martin In The F
TTITLE7=ields - BASTON: Concerto No. 2 in D: II. Adagio
TTITLE8=Michala Petri - Kenneth Sillito: Academy Of St. Martin In The F
TTITLE8=ields - BASTON: Concerto No. 2 in D: III. Presto
TTITLE9=Michala Petri - Kenneth Sillito: Academy Of St. Martin In The F
TTITLE9=ields - JACOB: Suite: I. Prelude: Adagio, ma poce con moto
TTITLE10=Michala Petri - Kenneth Sillito: Academy Of St. Martin In The 
TTITLE10=Fields - JACOB: Suite: II. English dance: Allegro molto
TTITLE11=Michala Petri - Kenneth Sillito: Academy Of St. Martin In The 
TTITLE11=Fields - JACOB: Suite: III. Lament: Adagio expressivo
TTITLE12=Michala Petri - Kenneth Sillito: Academy Of St. Martin In The 
TTITLE12=Fields - JACOB: Suite: IV. Burlesca alla rumba: Allegro gioio
TTITLE12=so
TTITLE13=Michala Petri - Kenneth Sillito: Academy Of St. Martin In The 
TTITLE13=Fields - JACOB: Suite: V. Pavane: Adagio
TTITLE14=Michala Petri - Kenneth Sillito: Academy Of St. Martin In The 
TTITLE14=Fields - JACOB: Suite: VI. Introduction and Cadenza: Andante 
TTITLE14=sostenuto
TTITLE15=Michala Petri - Kenneth Sillito: Academy Of St. Martin In The 
TTITLE15=Fields - JACOB: Suite: VII. Tarantella: Presto con fuoco
EXTD=William Babell (c1690/1723): Recorder Concerto in C major, Op.3#1
EXTD=\nGeorge Frideric Handel [Georg Friedrich Händel] (1685/1759): Re
EXTD=corder Concerto in B-flat major, arr. from Harp Concerto, Op.4#6,
EXTD=HWV 294\nJohn Baston (fl.1708/1739): Recorder Concerto No.2 in D
EXTD=major\nGordon Jacob (1895/1984): Suite for recorder and strings\n
EXTD=Michala Petri (b.1958): recorders\nGraham Sheen: bassoon (Handel)
EXTD=\nAcademy of St. Martin in the Fields, directed by Kenneth Sillit
EXTD=o.\nRecorded at Henry Wood Hall, London GB, 1982-06.\nProducer: W
EXTD=ilhelm Hellweg\nRecording engineer: Wilhelm Hellweg\nCD: Philips 
EXTD=411 056-2 (1983-12-12), UPC 028941105622 - Philips 476 164-2 (2004
EXTD=11-09), UPC 028947616429.\nAlso packaged as disc 2 of the 4-CD s
EXTD=et Michala Petri: "The Art of the Recorder", Decca 475 8464 [D|C|
EXTD=4] (2007-05-15), UPC 028947584643.
EXTT0=(William Babell)
EXTT1=(William Babell)
EXTT2=(William Babell)
EXTT3=(George Frideric Handel)
EXTT4=(George Frideric Handel)
EXTT5=(George Frideric Handel)
EXTT6=(John Baston)
EXTT7=(John Baston)
EXTT8=(John Baston)
EXTT9=(Gordon Jacob)
EXTT10=(Gordon Jacob)
EXTT11=(Gordon Jacob)
EXTT12=(Gordon Jacob)
EXTT13=(Gordon Jacob)
EXTT14=(Gordon Jacob)
EXTT15=(Gordon Jacob)
PLAYORDER=
